<svg width="1611" height="2079" viewBox="0 0 1611 2079" fill="none" xmlns="http://www.w3.org/2000/svg">
<path d="M1399 4.5C1399 2.29086 1397.21 0.5 1395 0.5C1392.79 0.5 1391 2.29086 1391 4.5H1399ZM20.5 1996L16.5764 1996.78L20.5 1996ZM355.5 1970L358.344 1967.19L355.5 1970ZM144.152 1634.83L146.981 1637.66L144.152 1634.83ZM142.914 1636.23L146.053 1638.71L142.914 1636.23ZM445.002 1900.87L448.518 1902.78L445.002 1900.87ZM435.993 1935.34L432.105 1936.29L435.993 1935.34ZM439.056 1911.84L442.572 1913.74L439.056 1911.84ZM148.675 1901.65L152.522 1900.55L148.675 1901.65ZM150.997 1907.06L147.614 1909.2L150.997 1907.06ZM432.981 1968.03L429.652 1965.81L432.981 1968.03ZM437.594 1941.95L433.707 1942.89L437.594 1941.95ZM427 1977L430.328 1979.22L427 1977ZM427 1977L430.328 1979.22L427 1977ZM1391 4.5V149H1399V4.5H1391ZM1428 186H1574V178H1428V186ZM1603 215V651H1611V215H1603ZM1574 680H50.0852V688H1574V680ZM13.1494 715.571C10.7226 808.11 3.79232 1089.04 1.35289 1366.44C0.133205 1505.13 0.0359182 1642.97 2.18678 1755.94C4.33449 1868.75 8.72547 1957.18 16.5764 1996.78L24.4237 1995.22C16.7395 1956.47 12.3373 1868.82 10.1853 1755.79C8.03654 1642.93 8.13315 1505.17 9.35258 1366.51C11.7914 1089.18 18.7202 808.305 21.1467 715.781L13.1494 715.571ZM352.656 1972.81C376.14 1996.55 395.531 1999.15 409.559 1994.55C423.059 1990.12 430.192 1979.42 430.328 1979.22L423.672 1974.78C423.808 1974.58 417.94 1983.38 407.065 1986.95C396.718 1990.35 380.36 1989.44 358.344 1967.19L352.656 1972.81ZM430.328 1979.22L436.309 1970.25L429.652 1965.81L423.672 1974.78L430.328 1979.22ZM441.481 1941.01L439.88 1934.4L432.105 1936.29L433.707 1942.89L441.481 1941.01ZM442.572 1913.74L448.518 1902.78L441.486 1898.96L435.539 1909.93L442.572 1913.74ZM462.63 1862.1C468.146 1859.89 473.983 1857.14 478.606 1853.96C482.981 1850.94 487.382 1846.79 487.976 1841.44L480.025 1840.56C479.85 1842.13 478.227 1844.5 474.068 1847.37C470.158 1850.06 464.95 1852.55 459.654 1854.67L462.63 1862.1ZM487.976 1841.44C488.294 1838.57 487.348 1835.97 485.97 1833.76C484.604 1831.58 482.664 1829.54 480.529 1827.65C476.286 1823.89 470.515 1820.06 464.994 1816.31C459.334 1812.48 453.836 1808.67 449.595 1804.74C445.268 1800.73 442.896 1797.16 442.464 1793.96L434.536 1795.04C435.354 1801.09 439.482 1806.27 444.156 1810.61C448.914 1815.02 454.917 1819.15 460.506 1822.94C466.235 1826.82 471.465 1830.3 475.221 1833.63C477.087 1835.29 478.396 1836.74 479.187 1838.01C479.965 1839.25 480.081 1840.05 480.025 1840.56L487.976 1841.44ZM442.464 1793.96C441.912 1789.88 442.198 1784.74 442.981 1778.82C443.761 1772.93 444.985 1766.6 446.184 1760.1C447.37 1753.67 448.527 1747.1 449.092 1741.01C449.654 1734.96 449.671 1729.05 448.374 1724L440.626 1726C441.58 1729.7 441.659 1734.54 441.127 1740.27C440.599 1745.96 439.506 1752.2 438.317 1758.65C437.14 1765.03 435.864 1771.63 435.05 1777.77C434.24 1783.89 433.839 1789.87 434.536 1795.04L442.464 1793.96ZM448.374 1724C443.914 1706.66 424.895 1608.45 309.078 1591.54L307.922 1599.46C418.105 1615.55 436.086 1708.34 440.626 1726L448.374 1724ZM309.078 1591.54C201.76 1575.87 148.237 1625.08 141.322 1632L146.981 1637.66C152.688 1631.95 203.818 1584.26 307.922 1599.46L309.078 1591.54ZM139.774 1633.76C136.761 1637.57 123.313 1655.19 112.5 1678.81C101.734 1702.33 93.2607 1732.49 101.144 1761.06L108.856 1758.94C101.721 1733.07 109.287 1705.05 119.774 1682.14C130.213 1659.34 143.231 1642.29 146.053 1638.71L139.774 1633.76ZM101.144 1761.06C109.217 1790.33 116.306 1806.29 121.758 1817.83C127.208 1829.37 130.631 1835.76 132.034 1846.52L139.966 1845.48C138.369 1833.24 134.292 1825.63 128.992 1814.42C123.694 1803.21 116.783 1787.67 108.856 1758.94L101.144 1761.06ZM132.034 1846.52C134.567 1865.94 142.305 1893.9 144.829 1902.75L152.522 1900.55C149.978 1891.64 142.411 1864.23 139.966 1845.48L132.034 1846.52ZM147.614 1909.2C153.857 1919.09 178.589 1951.48 231.799 1947.49L231.201 1939.51C182.167 1943.19 159.829 1913.56 154.379 1904.93L147.614 1909.2ZM231.799 1947.49C248.947 1946.2 260.511 1933.45 268.249 1916.89C276.017 1900.26 280.454 1878.78 282.972 1857.79C285.497 1836.73 286.125 1815.86 286.125 1800.27C286.125 1792.47 285.968 1785.98 285.81 1781.44C285.731 1779.17 285.652 1777.38 285.593 1776.15C285.563 1775.54 285.538 1775.07 285.521 1774.75C285.512 1774.59 285.505 1774.47 285.5 1774.39C285.498 1774.35 285.496 1774.31 285.495 1774.29C285.494 1774.28 285.494 1774.27 285.493 1774.27C285.493 1774.26 285.493 1774.26 285.493 1774.26C285.493 1774.26 285.493 1774.26 281.5 1774.5C277.507 1774.74 277.507 1774.74 277.507 1774.74C277.508 1774.74 277.508 1774.75 277.508 1774.75C277.508 1774.75 277.508 1774.76 277.509 1774.77C277.51 1774.78 277.512 1774.81 277.514 1774.85C277.518 1774.93 277.525 1775.04 277.533 1775.19C277.55 1775.49 277.574 1775.95 277.602 1776.54C277.66 1777.73 277.738 1779.48 277.815 1781.72C277.97 1786.18 278.125 1792.58 278.125 1800.27C278.125 1815.67 277.503 1836.21 275.029 1856.84C272.546 1877.53 268.233 1898.02 261.001 1913.5C253.739 1929.05 244.053 1938.55 231.201 1939.51L231.799 1947.49ZM16.5764 1996.78C26.2733 2045.68 63.9814 2070.6 105.092 2077.08C145.981 2083.52 191.185 2071.93 217.27 2046.89L211.73 2041.11C187.816 2064.07 145.305 2075.31 106.337 2069.17C67.5911 2063.07 33.2992 2039.99 24.4237 1995.22L16.5764 1996.78ZM217.27 2046.89C242.113 2023.04 271.853 1999.45 297.866 1984.5C310.899 1977.02 322.763 1971.83 332.471 1969.77C342.306 1967.67 348.855 1968.97 352.656 1972.81L358.344 1967.19C351.643 1960.41 341.565 1959.65 330.805 1961.94C319.919 1964.26 307.221 1969.9 293.88 1977.57C267.144 1992.93 236.887 2016.96 211.73 2041.11L217.27 2046.89ZM141.322 1632C140.744 1632.58 140.241 1633.16 139.774 1633.76L146.053 1638.71C146.369 1638.31 146.666 1637.97 146.981 1637.66L141.322 1632ZM450.585 1884.35C448.078 1875.41 453.434 1865.78 462.63 1862.1L459.654 1854.67C447.264 1859.64 439.105 1873.05 442.883 1886.51L450.585 1884.35ZM448.518 1902.78C451.578 1897.14 452.32 1890.52 450.585 1884.35L442.883 1886.51C444.055 1890.68 443.554 1895.15 441.486 1898.96L448.518 1902.78ZM439.88 1934.4C438.187 1927.42 439.147 1920.06 442.572 1913.74L435.539 1909.93C431.169 1917.99 429.946 1927.38 432.105 1936.29L439.88 1934.4ZM144.829 1902.75C145.442 1904.9 146.289 1907.1 147.614 1909.2L154.379 1904.93C153.582 1903.66 153 1902.23 152.522 1900.55L144.829 1902.75ZM436.309 1970.25C442.04 1961.65 443.916 1951.05 441.481 1941.01L433.707 1942.89C435.615 1950.76 434.145 1959.07 429.652 1965.81L436.309 1970.25ZM50.0852 680C30.1193 680 13.6763 695.479 13.1494 715.571L21.1467 715.781C21.5564 700.156 34.3227 688 50.0852 688V680ZM1603 651C1603 667.016 1590.02 680 1574 680V688C1594.43 688 1611 671.435 1611 651H1603ZM430.328 1979.22L430.328 1979.22L423.672 1974.78L430.328 1979.22ZM1574 186C1590.02 186 1603 198.984 1603 215H1611C1611 194.565 1594.43 178 1574 178V186ZM1391 149C1391 169.435 1407.57 186 1428 186V178C1411.98 178 1399 165.016 1399 149H1391Z" fill="#4A9B80"/>
</svg>
